<svg width="307" height="106" viewBox="0 0 307 106" fill="none" xmlns="http://www.w3.org/2000/svg">
<g filter="url(#filter0_d_848_4351)">
<rect x="4" width="299" height="98" rx="20" fill="#101010"/>
<path d="M59.277 48.8864C58.6634 52.5568 57.4702 55.7045 55.6974 58.3295C53.9361 60.9545 51.777 62.9716 49.2202 64.3807C46.6747 65.7784 43.9247 66.4773 40.9702 66.4773C37.8906 66.4773 35.2599 65.7443 33.0781 64.2784C30.9077 62.8011 29.3509 60.7045 28.4077 57.9886C27.4645 55.2614 27.3054 52.0114 27.9304 48.2386C28.544 44.5682 29.7315 41.4205 31.4929 38.7955C33.2656 36.1591 35.4304 34.1364 37.9872 32.7273C40.5554 31.3182 43.3281 30.6136 46.3054 30.6136C49.3622 30.6136 51.9702 31.3523 54.1293 32.8295C56.2997 34.2955 57.8565 36.3977 58.7997 39.1364C59.7429 41.8636 59.902 45.1136 59.277 48.8864ZM54.1463 48.2386C54.6122 45.4545 54.5554 43.1136 53.9759 41.2159C53.4077 39.3068 52.4361 37.8636 51.0611 36.8864C49.6861 35.9091 48.027 35.4205 46.0838 35.4205C44.0156 35.4205 42.0781 35.9432 40.2713 36.9886C38.4759 38.0341 36.9418 39.5568 35.669 41.5568C34.3963 43.5568 33.527 46 33.0611 48.8864C32.5838 51.6705 32.6349 54.0114 33.2145 55.9091C33.794 57.8068 34.7713 59.2443 36.1463 60.2216C37.5327 61.1875 39.1974 61.6705 41.1406 61.6705C43.1974 61.6705 45.1236 61.1534 46.919 60.1193C48.7259 59.0739 50.2656 57.5568 51.5384 55.5682C52.8111 53.5682 53.6804 51.125 54.1463 48.2386ZM62.9972 66L68.7926 31.0909H73.8892L71.7585 44.0625H72.0653C72.4517 43.517 72.9801 42.8864 73.6506 42.1705C74.3324 41.4545 75.2131 40.8295 76.2926 40.2955C77.3722 39.75 78.7244 39.4773 80.3494 39.4773C82.4631 39.4773 84.2585 40.0114 85.7358 41.0795C87.2131 42.1477 88.2585 43.6875 88.8722 45.6989C89.4858 47.7102 89.5597 50.1307 89.0938 52.9602C88.6278 55.7898 87.7528 58.2159 86.4688 60.2386C85.196 62.25 83.6449 63.8011 81.8153 64.892C79.9858 65.9716 78.0142 66.5114 75.9006 66.5114C74.3097 66.5114 73.054 66.2443 72.1335 65.7102C71.2244 65.1761 70.5426 64.5511 70.0881 63.8352C69.6449 63.1193 69.3097 62.483 69.0824 61.9261H68.6562L67.9744 66H62.9972ZM70.1733 52.9091C69.8778 54.75 69.8778 56.3636 70.1733 57.75C70.4801 59.1364 71.0767 60.2216 71.9631 61.0057C72.8608 61.7784 74.0369 62.1648 75.4915 62.1648C77.0142 62.1648 78.3551 61.7614 79.5142 60.9545C80.6733 60.1364 81.6278 59.0284 82.3778 57.6307C83.1278 56.233 83.6506 54.6591 83.946 52.9091C84.2188 51.1818 84.2131 49.6307 83.929 48.2557C83.6449 46.8807 83.054 45.7955 82.1562 45C81.2699 44.2045 80.0597 43.8068 78.5256 43.8068C77.0483 43.8068 75.7358 44.1875 74.5881 44.9489C73.4403 45.7102 72.4915 46.7727 71.7415 48.1364C70.9915 49.5 70.4688 51.0909 70.1733 52.9091ZM96.9986 39.8182H102.095L97.4759 67.7045C97.1804 69.4545 96.6122 70.9318 95.7713 72.1364C94.9304 73.3409 93.8395 74.2557 92.4986 74.8807C91.1577 75.5057 89.5838 75.8182 87.777 75.8182C87.6065 75.8182 87.4418 75.8182 87.2827 75.8182C87.1122 75.8182 86.9361 75.8125 86.7543 75.8011L87.4872 71.4205C87.6349 71.4205 87.7713 71.4205 87.8963 71.4205C88.0213 71.4205 88.1577 71.4205 88.3054 71.4205C89.5099 71.4205 90.4418 71.0966 91.1009 70.4489C91.7486 69.8011 92.1804 68.875 92.3963 67.6705L96.9986 39.8182ZM100.493 35.7784C99.6179 35.7784 98.8736 35.483 98.2599 34.892C97.6577 34.2898 97.3793 33.5739 97.4247 32.7443C97.4588 31.9034 97.8054 31.1875 98.4645 30.5966C99.1236 29.9943 99.8963 29.6932 100.783 29.6932C101.669 29.6932 102.413 29.9943 103.016 30.5966C103.618 31.1875 103.896 31.9034 103.851 32.7443C103.817 33.5739 103.47 34.2898 102.811 34.892C102.152 35.483 101.379 35.7784 100.493 35.7784ZM115.804 66.5284C113.236 66.5284 111.111 65.9773 109.429 64.875C107.759 63.7614 106.588 62.1989 105.918 60.1875C105.247 58.1648 105.139 55.7955 105.594 53.0795C106.037 50.3977 106.929 48.0341 108.27 45.9886C109.611 43.9432 111.281 42.3466 113.281 41.1989C115.293 40.0511 117.514 39.4773 119.946 39.4773C121.423 39.4773 122.815 39.7216 124.122 40.2102C125.44 40.6989 126.56 41.4659 127.48 42.5114C128.401 43.5568 129.037 44.9148 129.389 46.5852C129.753 48.2443 129.741 50.2614 129.355 52.6364L129.065 54.4432H108.236L108.832 50.625H124.651C124.889 49.2841 124.827 48.0966 124.463 47.0625C124.099 46.017 123.474 45.1932 122.588 44.5909C121.713 43.9886 120.611 43.6875 119.281 43.6875C117.918 43.6875 116.645 44.0455 115.463 44.7614C114.281 45.4773 113.293 46.392 112.497 47.5057C111.713 48.608 111.219 49.7443 111.014 50.9148L110.418 54.4091C110.122 56.3182 110.173 57.8523 110.571 59.0114C110.98 60.1705 111.696 61.0114 112.719 61.5341C113.741 62.0568 115.02 62.3182 116.554 62.3182C117.543 62.3182 118.457 62.1818 119.298 61.9091C120.151 61.625 120.906 61.2102 121.565 60.6648C122.224 60.108 122.776 59.4148 123.219 58.5852L127.889 59.4545C127.264 60.875 126.366 62.1193 125.196 63.1875C124.026 64.2443 122.645 65.0682 121.054 65.6591C119.474 66.2386 117.724 66.5284 115.804 66.5284ZM143.814 66.5284C141.268 66.5284 139.183 65.9545 137.558 64.8068C135.933 63.6477 134.803 62.0511 134.166 60.017C133.53 57.983 133.428 55.6534 133.859 53.0284C134.291 50.3693 135.172 48.0227 136.501 45.9886C137.842 43.9432 139.518 42.3466 141.53 41.1989C143.553 40.0511 145.797 39.4773 148.263 39.4773C150.251 39.4773 151.962 39.8466 153.393 40.5852C154.825 41.3125 155.911 42.3352 156.649 43.6534C157.388 44.9716 157.706 46.5114 157.604 48.2727H152.643C152.564 47.0455 152.109 45.9886 151.28 45.1023C150.45 44.2159 149.229 43.7727 147.615 43.7727C146.195 43.7727 144.888 44.1477 143.695 44.8977C142.501 45.6364 141.496 46.6932 140.678 48.0682C139.859 49.4318 139.303 51.0455 139.007 52.9091C138.689 54.8182 138.706 56.4659 139.058 57.8523C139.411 59.2386 140.058 60.3125 141.001 61.0739C141.945 61.8352 143.132 62.2159 144.564 62.2159C145.541 62.2159 146.45 62.0398 147.291 61.6875C148.143 61.3239 148.893 60.8068 149.541 60.1364C150.2 59.4659 150.712 58.6591 151.075 57.7159H156.053C155.564 59.4091 154.746 60.9205 153.598 62.25C152.462 63.5795 151.064 64.625 149.405 65.3864C147.746 66.1477 145.882 66.5284 143.814 66.5284ZM176.673 39.8182L176.009 43.9091H161.707L162.372 39.8182H176.673ZM167.23 33.5455H172.327L168.202 58.3125C168.043 59.3011 168.071 60.0455 168.287 60.5455C168.503 61.0341 168.832 61.3693 169.276 61.5511C169.73 61.7216 170.236 61.8068 170.793 61.8068C171.202 61.8068 171.56 61.7784 171.866 61.7216C172.173 61.6648 172.418 61.6193 172.599 61.5852L172.872 65.7955C172.531 65.9091 172.071 66.0227 171.491 66.1364C170.923 66.2614 170.23 66.3295 169.412 66.3409C168.071 66.3636 166.861 66.125 165.781 65.625C164.702 65.1136 163.895 64.3409 163.361 63.3068C162.827 62.2614 162.696 60.9489 162.969 59.3693L167.23 33.5455ZM177.947 66L182.311 39.8182H187.408L183.044 66H177.947ZM185.925 35.7273C185.038 35.7273 184.288 35.4318 183.675 34.8409C183.072 34.2386 182.794 33.5227 182.839 32.6932C182.885 31.8523 183.237 31.1364 183.896 30.5455C184.555 29.9432 185.322 29.642 186.197 29.642C187.084 29.642 187.828 29.9432 188.43 30.5455C189.033 31.1364 189.317 31.8523 189.283 32.6932C189.237 33.5227 188.885 34.2386 188.226 34.8409C187.578 35.4318 186.811 35.7273 185.925 35.7273ZM216.662 39.8182L202.804 66H197.349L192.202 39.8182H197.469L200.741 59.9659H201.014L210.986 39.8182H216.662ZM227.413 66.5284C224.845 66.5284 222.72 65.9773 221.038 64.875C219.368 63.7614 218.197 62.1989 217.527 60.1875C216.857 58.1648 216.749 55.7955 217.203 53.0795C217.646 50.3977 218.538 48.0341 219.879 45.9886C221.22 43.9432 222.891 42.3466 224.891 41.1989C226.902 40.0511 229.124 39.4773 231.555 39.4773C233.033 39.4773 234.425 39.7216 235.732 40.2102C237.05 40.6989 238.169 41.4659 239.089 42.5114C240.01 43.5568 240.646 44.9148 240.999 46.5852C241.362 48.2443 241.351 50.2614 240.964 52.6364L240.675 54.4432H219.845L220.442 50.625H236.26C236.499 49.2841 236.436 48.0966 236.072 47.0625C235.709 46.017 235.084 45.1932 234.197 44.5909C233.322 43.9886 232.22 43.6875 230.891 43.6875C229.527 43.6875 228.254 44.0455 227.072 44.7614C225.891 45.4773 224.902 46.392 224.107 47.5057C223.322 48.608 222.828 49.7443 222.624 50.9148L222.027 54.4091C221.732 56.3182 221.783 57.8523 222.18 59.0114C222.589 60.1705 223.305 61.0114 224.328 61.5341C225.351 62.0568 226.629 62.3182 228.163 62.3182C229.152 62.3182 230.067 62.1818 230.908 61.9091C231.76 61.625 232.516 61.2102 233.175 60.6648C233.834 60.108 234.385 59.4148 234.828 58.5852L239.499 59.4545C238.874 60.875 237.976 62.1193 236.805 63.1875C235.635 64.2443 234.254 65.0682 232.663 65.6591C231.084 66.2386 229.334 66.5284 227.413 66.5284ZM267.389 46.2102L262.634 47.0284C262.531 46.4261 262.321 45.858 262.003 45.3239C261.696 44.7898 261.224 44.358 260.588 44.0284C259.952 43.6875 259.105 43.517 258.048 43.517C256.582 43.517 255.298 43.8523 254.196 44.5227C253.105 45.1932 252.48 46.0455 252.321 47.0795C252.173 47.9205 252.372 48.6023 252.918 49.125C253.463 49.6364 254.423 50.0625 255.798 50.4034L259.821 51.358C262.139 51.9148 263.798 52.7841 264.798 53.9659C265.81 55.1364 266.162 56.6591 265.855 58.5341C265.594 60.0909 264.912 61.4716 263.81 62.6761C262.719 63.8807 261.321 64.8239 259.616 65.5057C257.912 66.1875 256.014 66.5284 253.923 66.5284C250.946 66.5284 248.628 65.8977 246.969 64.6364C245.31 63.375 244.457 61.5909 244.412 59.2841L249.457 58.5341C249.548 59.8182 250.009 60.7898 250.838 61.4489C251.679 62.0966 252.844 62.4205 254.332 62.4205C256.037 62.4318 257.463 62.0739 258.611 61.3466C259.759 60.6193 260.412 59.7386 260.571 58.7045C260.707 57.8977 260.526 57.2273 260.026 56.6932C259.537 56.1591 258.673 55.75 257.435 55.4659L253.207 54.4943C250.844 53.9375 249.173 53.0398 248.196 51.8011C247.219 50.5625 246.889 49.0057 247.207 47.1307C247.457 45.5966 248.105 44.2614 249.151 43.125C250.207 41.9773 251.543 41.0852 253.156 40.4489C254.77 39.8011 256.554 39.4773 258.509 39.4773C261.361 39.4773 263.503 40.0909 264.935 41.3182C266.366 42.5341 267.185 44.1648 267.389 46.2102ZM273.982 66.3239C273.027 66.3239 272.232 65.9943 271.595 65.3352C270.97 64.6761 270.663 63.8693 270.675 62.9148C270.686 61.9716 271.038 61.1818 271.732 60.5455C272.436 59.8977 273.254 59.5739 274.186 59.5739C275.118 59.5739 275.913 59.9034 276.572 60.5625C277.232 61.2216 277.538 62.0057 277.493 62.9148C277.459 63.5511 277.277 64.1307 276.947 64.6534C276.629 65.1648 276.209 65.5739 275.686 65.8807C275.163 66.1761 274.595 66.3239 273.982 66.3239Z" fill="url(#paint0_linear_848_4351)"/>
<path d="M183.854 33.8536C184.049 33.6583 184.049 33.3417 183.854 33.1464L180.672 29.9645C180.476 29.7692 180.16 29.7692 179.964 29.9645C179.769 30.1597 179.769 30.4763 179.964 30.6716L182.793 33.5L179.964 36.3284C179.769 36.5237 179.769 36.8403 179.964 37.0355C180.16 37.2308 180.476 37.2308 180.672 37.0355L183.854 33.8536ZM183.5 33L103 33L103 34L183.5 34L183.5 33Z" fill="url(#paint1_linear_848_4351)"/>
</g>
<defs>
<filter id="filter0_d_848_4351" x="0" y="0" width="307" height="106" filterUnits="userSpaceOnUse" color-interpolation-filters="sRGB">
<feFlood flood-opacity="0" result="BackgroundImageFix"/>
<feColorMatrix in="SourceAlpha" type="matrix" values="0 0 0 0 0 0 0 0 0 0 0 0 0 0 0 0 0 0 127 0" result="hardAlpha"/>
<feOffset dy="4"/>
<feGaussianBlur stdDeviation="2"/>
<feComposite in2="hardAlpha" operator="out"/>
<feColorMatrix type="matrix" values="0 0 0 0 0 0 0 0 0 0 0 0 0 0 0 0 0 0 0.25 0"/>
<feBlend mode="normal" in2="BackgroundImageFix" result="effect1_dropShadow_848_4351"/>
<feBlend mode="normal" in="SourceGraphic" in2="effect1_dropShadow_848_4351" result="shape"/>
</filter>
<linearGradient id="paint0_linear_848_4351" x1="24" y1="49" x2="283" y2="49" gradientUnits="userSpaceOnUse">
<stop stop-color="#F8DFCD"/>
<stop offset="1" stop-color="#C3890B"/>
</linearGradient>
<linearGradient id="paint1_linear_848_4351" x1="104" y1="33.9061" x2="182" y2="33.9061" gradientUnits="userSpaceOnUse">
<stop stop-color="#E7C592"/>
<stop offset="1" stop-color="#D7A954"/>
</linearGradient>
</defs>
</svg>
